# xmcd
#
# Track frame offsets:
#	150
#	17862
#	39745
#	64905
#	79621
#	96192
#	111037
#	131284
#	154613
#	171725
#	194899
#	215512
#	231803
#	252782
#
# Disc length: 3592 seconds
#
# Revision: 2
# Processed by: cddbd v1.5.1PL0 Copyright (c) Steve Scherf et al.
# Submitted via: EasyCDDAExtractor 6.0.0.1
#
DISCID=c40e060e
DTITLE=Various Artist - Serrat...Eres único! Vol. 2
DYEAR=2005
DGENRE=Blues
TTITLE0=Antonio orozco - Disculpe El Señor
TTITLE1=David de Maria - Cantares
TTITLE2=Pastora - Niño Silvestre
TTITLE3=Manolo Garcia - Para La Libertad
TTITLE4=Estopa - Mediterraneo
TTITLE5=Chambao - Hoy Puede Ser Un Gran Día
TTITLE6=Alejandro Sanz - Paraules D'amor
TTITLE7=Los Secretos - Princesa
TTITLE8=Rosendo - Vagabundear
TTITLE9=Malu - Pueblo Blanco
TTITLE10=Carlos Chaouen - La Mujer Que Yo Quiero
TTITLE11=Montse Cortes - Campesina
TTITLE12=Pasion Vega - Sinceramente Tuyo
TTITLE13=La cabra mecanica - Que Bonito Es Badalona
EXTD=gugome dj\n
EXTT0=
EXTT1=
EXTT2=
EXTT3=
EXTT4=
EXTT5=
EXTT6=
EXTT7=
EXTT8=
EXTT9=
EXTT10=
EXTT11=
EXTT12=
EXTT13=
PLAYORDER=
